<?xml version="1.0" encoding="UTF-8" standalone="no"?> <!-- Generator: Adobe Illustrator 24.0.0, SVG Export Plug-In . SVG Version: 6.00 Build 0) --> <svg xmlns:inkscape="http://www.inkscape.org/namespaces/inkscape" xmlns:sodipodi="http://sodipodi.sourceforge.net/DTD/sodipodi-0.dtd" xmlns="http://www.w3.org/2000/svg" xmlns:svg="http://www.w3.org/2000/svg" version="1.1" id="Layer_1" x="0px" y="0px" viewBox="0 0 79.999999 79.999998" xml:space="preserve" sodipodi:docname="Favicon_logo_redondeado.svg" width="80" height="80" inkscape:version="1.1 (c68e22c387, 2021-05-23)"><defs id="defs69"></defs> <style type="text/css" id="style2"> .st0{fill:#FFFFFF;} .st1{fill:#2CFFA5;} </style> <g id="g64" transform="translate(-214.53513,-195.48291)" inkscape:groupmode="layer" style="display:inline"> <rect x="214.53513" y="195.48291" width="80" height="80" id="rect4" style="display:inline;stroke-width:0.264693" ry="20.397306"></rect> <g id="g62" style="display:inline"> <g id="g50" style="display:none"> <g id="g32"> <path class="st0" d="m 173.35,280.52 2.95,-9.19 h 9.29 l -0.52,1.61 h -7.15 l -0.78,2.42 h 3.87 l -0.54,1.68 h -3.87 l -1.12,3.49 h -2.13 z" id="path6"></path> <path class="st0" d="m 183.51,280.52 2.95,-9.19 h 9.41 l -0.5,1.56 h -7.27 l -0.66,2.05 h 4.24 l -0.5,1.56 h -4.24 l -0.73,2.28 h 7.35 l -0.56,1.73 h -9.49 z" id="path8"></path> <path class="st0" d="m 195.17,280.52 2.95,-9.19 h 2.14 l -2.4,7.46 h 6.89 l -0.56,1.73 z" id="path10"></path> <path class="st0" d="m 205.55,280.52 2.95,-9.19 h 2.14 l -2.95,9.19 z" id="path12"></path> <path class="st0" d="m 210.6,280.52 2.95,-9.19 h 7.86 c 0.73,0 1.21,0.14 1.45,0.42 0.24,0.28 0.26,0.73 0.05,1.36 l -0.66,2.05 c -0.2,0.62 -0.51,1.07 -0.93,1.35 -0.42,0.28 -0.99,0.42 -1.72,0.42 h -5.75 l -1.15,3.58 h -2.1 z m 9.35,-7.6 h -4.81 l -0.78,2.43 h 4.81 c 0.37,0 0.64,-0.05 0.81,-0.16 0.17,-0.11 0.3,-0.3 0.39,-0.57 l 0.32,-0.98 c 0.09,-0.27 0.08,-0.45 -0.02,-0.56 -0.11,-0.1 -0.35,-0.16 -0.72,-0.16 z" id="path14"></path> <path class="st0" d="m 222.05,280.52 2.95,-9.19 h 9.4 l -0.5,1.56 h -7.27 l -0.66,2.05 h 4.24 l -0.5,1.56 h -4.24 l -0.73,2.28 h 7.35 l -0.56,1.73 h -9.48 z" id="path16"></path> <path class="st1" d="m 249.22,272.94 h -6.01 l -0.63,1.97 h 5.73 c 0.9,0 1.46,0.15 1.67,0.46 0.22,0.31 0.19,0.88 -0.08,1.71 l -0.4,1.26 c -0.27,0.83 -0.61,1.41 -1.02,1.71 -0.41,0.31 -1.07,0.46 -1.97,0.46 h -5.68 c -0.9,0 -1.46,-0.15 -1.67,-0.46 -0.22,-0.31 -0.19,-0.88 0.08,-1.71 l 0.08,-0.25 2.01,-0.39 -0.35,1.09 h 6.49 l 0.67,-2.09 h -5.73 c -0.89,0 -1.45,-0.15 -1.66,-0.46 -0.21,-0.31 -0.19,-0.88 0.08,-1.71 l 0.33,-1.02 c 0.27,-0.83 0.61,-1.41 1.02,-1.71 0.41,-0.31 1.06,-0.46 1.96,-0.46 h 5.22 c 0.86,0 1.41,0.15 1.64,0.44 0.23,0.3 0.23,0.82 -0.01,1.57 l -0.06,0.19 -2.03,0.44 z" id="path18"></path> <path class="st1" d="m 249.69,280.52 8.15,-9.19 h 2.06 l 2.32,9.19 h -2.4 l -0.46,-2.01 h -5.82 l -1.71,2.01 z m 5.29,-3.67 H 259 l -0.78,-3.74 z m 2.98,-6.49 2.74,-3.01 h 1.93 l -3.53,3.01 z" id="path20"></path> <path class="st1" d="m 263.37,280.52 2.95,-9.19 h 1.46 l 4.73,5.42 c 0.16,0.18 0.3,0.35 0.42,0.51 0.12,0.16 0.22,0.32 0.3,0.49 0.13,-0.52 0.23,-0.88 0.28,-1.1 0.06,-0.21 0.1,-0.38 0.14,-0.5 l 1.55,-4.82 h 1.92 l -2.95,9.19 h -1.46 l -4.92,-5.68 c -0.12,-0.14 -0.22,-0.28 -0.3,-0.39 -0.08,-0.12 -0.16,-0.23 -0.22,-0.36 -0.06,0.28 -0.13,0.55 -0.19,0.8 -0.07,0.25 -0.13,0.47 -0.19,0.66 l -1.59,4.96 h -1.93 z" id="path22"></path> <path class="st1" d="m 287.21,272.97 h -5.76 l -1.87,5.82 h 5.76 l 0.63,-1.97 2,0.44 -0.35,1.09 c -0.27,0.84 -0.61,1.41 -1.02,1.72 -0.41,0.3 -1.06,0.46 -1.95,0.46 h -5.49 c -0.89,0 -1.45,-0.15 -1.66,-0.46 -0.22,-0.3 -0.19,-0.88 0.08,-1.72 l 1.56,-4.84 c 0.27,-0.83 0.61,-1.41 1.02,-1.71 0.41,-0.31 1.06,-0.46 1.96,-0.46 h 5.49 c 0.89,0 1.44,0.15 1.66,0.46 0.22,0.31 0.19,0.88 -0.08,1.71 l -0.28,0.87 -2.25,0.34 z" id="path24"></path> <path class="st1" d="m 289.56,280.52 2.95,-9.19 h 2.14 l -1.15,3.56 h 6.68 l 1.15,-3.56 h 2.16 l -2.95,9.19 h -2.16 l 1.27,-3.95 h -6.68 l -1.27,3.95 z" id="path26"></path> <path class="st1" d="m 303.44,280.52 2.95,-9.19 h 9.4 l -0.5,1.56 h -7.27 l -0.66,2.05 h 4.24 l -0.5,1.56 h -4.24 l -0.73,2.28 h 7.35 l -0.56,1.73 h -9.48 z" id="path28"></path> <path class="st1" d="m 313.84,280.52 0.32,-1 8.53,-6.55 h -5.78 l 0.53,-1.64 h 9.22 l -0.29,0.91 -8.62,6.55 h 6.52 l -0.56,1.73 z" id="path30"></path> </g> <g id="g48"> <path class="st0" d="m 215.61,285.6 h -3.72 l -1.21,3.75 h 3.72 l 0.41,-1.27 1.29,0.29 -0.23,0.7 c -0.17,0.54 -0.39,0.91 -0.66,1.11 -0.27,0.2 -0.69,0.29 -1.26,0.29 h -3.54 c -0.58,0 -0.93,-0.1 -1.07,-0.29 -0.14,-0.2 -0.12,-0.57 0.05,-1.11 l 1,-3.12 c 0.17,-0.54 0.39,-0.91 0.66,-1.1 0.27,-0.2 0.69,-0.3 1.26,-0.3 h 3.54 c 0.57,0 0.93,0.1 1.07,0.3 0.14,0.2 0.12,0.57 -0.05,1.1 l -0.18,0.56 -1.45,0.22 z" id="path34"></path> <path class="st0" d="m 219.23,290.46 5.26,-5.93 h 1.33 l 1.49,5.93 h -1.55 l -0.3,-1.3 h -3.76 l -1.11,1.3 z m 3.41,-2.36 h 2.6 l -0.5,-2.41 z" id="path36"></path> <path class="st0" d="m 231.51,290.46 1.9,-5.93 h 1.38 l -1.55,4.81 h 4.45 l -0.36,1.12 z" id="path38"></path> <path class="st0" d="m 240.84,290.46 0.21,-0.64 5.5,-4.22 h -3.73 l 0.34,-1.06 h 5.95 l -0.19,0.59 -5.56,4.22 h 4.21 l -0.36,1.12 h -6.37 z" id="path40"></path> <path class="st0" d="m 250.65,290.46 5.26,-5.93 h 1.33 l 1.49,5.93 h -1.55 l -0.3,-1.3 h -3.76 l -1.11,1.3 z m 3.42,-2.36 h 2.6 l -0.5,-2.41 z" id="path42"></path> <path class="st0" d="m 262.94,290.46 1.9,-5.93 h 3.81 c 1.09,0 1.84,0.25 2.26,0.76 0.42,0.51 0.48,1.23 0.18,2.16 -0.18,0.55 -0.45,1.05 -0.82,1.49 -0.37,0.44 -0.8,0.79 -1.3,1.05 -0.31,0.16 -0.67,0.28 -1.07,0.35 -0.41,0.07 -0.91,0.11 -1.51,0.11 h -3.45 z m 1.74,-1.11 h 1.78 c 0.95,0 1.67,-0.15 2.16,-0.44 0.49,-0.3 0.85,-0.78 1.06,-1.46 0.19,-0.61 0.18,-1.06 -0.05,-1.38 -0.23,-0.31 -0.66,-0.47 -1.31,-0.47 h -2.45 z" id="path44"></path> <path class="st0" d="m 273.63,290.46 5.26,-5.93 h 1.33 l 1.49,5.93 h -1.55 l -0.3,-1.3 h -3.76 l -1.11,1.3 z m 3.41,-2.36 h 2.6 l -0.5,-2.41 z" id="path46"></path> </g> </g> <g id="g60" style="display:inline"> <polygon class="st0" points="234.31,260.27 240.4,241.35 232.35,241.35 226.26,260.27 " id="polygon52"></polygon> <g id="g58"> <polygon class="st0" points="268.39,217.59 279.03,209.54 242.59,209.54 233.37,238.19 248.66,238.19 255.9,230.14 244.01,230.14 248.05,217.59 " id="polygon54"></polygon> <polygon class="st1" points="243,252.22 240.41,260.27 264.31,260.27 274,230.14 260.88,230.14 253.64,238.19 256.19,238.19 263.36,238.19 258.85,252.22 " id="polygon56"></polygon> </g> </g> </g> </g> </svg> 