<?xml version="1.0" encoding="UTF-8" standalone="no"?> <!-- Generator: Adobe Illustrator 24.0.0, SVG Export Plug-In . SVG Version: 6.00 Build 0) --> <svg xmlns:xlink="http://www.w3.org/1999/xlink" xmlns="http://www.w3.org/2000/svg" xmlns:svg="http://www.w3.org/2000/svg" version="1.1" id="Layer_1" x="0px" y="0px" viewBox="0 0 153.44 37.279999" xml:space="preserve" width="210" height="50"><defs id="defs163"></defs> <style type="text/css" id="style2"> .st0{fill:#0C1014;} .st1{fill:#FFFFFF;} .st2{fill:none;} .st3{opacity:0.2;} .st4{fill:#2CFFA5;} </style> <g id="g158" style="display:inline" transform="translate(-101.03,-231.36)"> <g id="g32" style="display:none"> <rect x="83.480003" y="154.84" class="st0" width="333.04999" height="190.32001" id="rect4"></rect> <g id="g10"> <path class="st1" d="m 301.46,296.85 c 0.01,-0.48 0.13,-0.89 0.32,-1.23 -3.31,-2.18 -6.39,-4.68 -9.18,-7.47 -10.51,-10.52 -17.01,-25.03 -17.01,-41.07 v -92.23 h -3.01 v 92.23 c 0,22.19 11.84,41.59 29.54,52.29 -0.43,-0.73 -0.68,-1.56 -0.66,-2.52 z" id="path6"></path> <path class="st1" d="m 391.76,154.85 v 92.23 c 0,16.04 -6.5,30.56 -17.01,41.07 -2.76,2.76 -5.79,5.23 -9.05,7.38 0.01,0.03 0.02,0.05 0.03,0.08 0.25,1.09 0.41,2.25 0.21,3.34 17.31,-10.79 28.84,-29.98 28.84,-51.88 v -92.23 h -3.02 z" id="path8"></path> </g> <path class="st2" d="M 384.7,154.85 H 282.65 v 91.72 c 0,28.18 22.84,51.02 51.02,51.02 28.18,0 51.02,-22.84 51.02,-51.02 v -91.72" id="path12"></path> <g id="g22"> <defs id="defs15"> <path id="XMLID_4_" d="m 333.67,297.59 c -28.18,0 -51.02,-22.84 -51.02,-51.02 V 154.85 H 384.7 v 91.72 c 0,28.18 -22.85,51.02 -51.03,51.02"></path> </defs> <use xlink:href="#XMLID_4_" style="overflow:visible;fill:#ffffff" id="use17" x="0" y="0" width="100%" height="100%"></use> <clipPath id="XMLID_2_"> <use xlink:href="#XMLID_4_" style="overflow:visible" id="use19" x="0" y="0" width="100%" height="100%"></use> </clipPath> </g> <circle transform="matrix(0.1602,-0.9871,0.9871,0.1602,-10.8835,577.0383)" class="st3" cx="333.67001" cy="294.92001" id="ellipse24" r="28.15"></circle> <circle transform="matrix(0.7071,-0.7071,0.7071,0.7071,-110.8063,322.3203)" class="st1" cx="333.67001" cy="294.92001" id="ellipse26" r="26.139999"></circle> <polygon class="st4" points="416.52,345.16 416.52,301.16 375.7,345.16 " id="polygon28"></polygon> <polygon class="st4" points="83.48,345.16 83.48,301.16 124.3,345.16 " id="polygon30"></polygon> </g> <g id="g90" style="display:inline"> <g id="g78"> <g id="g60"> <path class="st1" d="m 141.84,251.18 2.17,-6.75 h 6.83 l -0.38,1.18 h -5.26 l -0.57,1.78 h 2.84 l -0.4,1.23 h -2.84 l -0.82,2.56 z" id="path34"></path> <path class="st1" d="m 149.31,251.18 2.17,-6.75 h 6.91 l -0.37,1.15 h -5.34 l -0.48,1.51 h 3.12 l -0.37,1.15 h -3.12 l -0.54,1.67 h 5.4 l -0.41,1.27 z" id="path36"></path> <path class="st1" d="m 157.87,251.18 2.17,-6.75 h 1.57 l -1.76,5.48 h 5.06 l -0.41,1.27 z" id="path38"></path> <path class="st1" d="m 165.5,251.18 2.17,-6.75 h 1.57 l -2.17,6.75 z" id="path40"></path> <path class="st1" d="m 169.21,251.18 2.17,-6.75 h 5.77 c 0.54,0 0.89,0.1 1.07,0.31 0.17,0.21 0.19,0.54 0.04,1 l -0.48,1.51 c -0.15,0.46 -0.37,0.79 -0.68,0.99 -0.31,0.21 -0.73,0.31 -1.27,0.31 h -4.23 l -0.85,2.63 z m 6.87,-5.58 h -3.53 l -0.57,1.79 h 3.53 c 0.27,0 0.47,-0.04 0.6,-0.12 0.13,-0.08 0.22,-0.22 0.28,-0.42 l 0.23,-0.72 c 0.06,-0.2 0.06,-0.33 -0.02,-0.41 -0.08,-0.08 -0.25,-0.12 -0.52,-0.12 z" id="path42"></path> <path class="st1" d="m 177.62,251.18 2.17,-6.75 h 6.91 l -0.37,1.15 h -5.34 l -0.48,1.51 h 3.12 l -0.37,1.15 h -3.12 l -0.54,1.67 h 5.4 l -0.41,1.27 z" id="path44"></path> <path class="st4" d="m 197.58,245.62 h -4.42 l -0.47,1.45 h 4.21 c 0.66,0 1.07,0.11 1.23,0.34 0.16,0.23 0.14,0.64 -0.06,1.26 l -0.3,0.93 c -0.2,0.61 -0.45,1.03 -0.75,1.26 -0.3,0.23 -0.79,0.34 -1.45,0.34 h -4.17 c -0.66,0 -1.07,-0.11 -1.23,-0.34 -0.16,-0.23 -0.14,-0.64 0.06,-1.26 l 0.06,-0.19 1.48,-0.29 -0.26,0.8 h 4.77 l 0.49,-1.54 h -4.21 c -0.66,0 -1.06,-0.11 -1.22,-0.34 -0.16,-0.23 -0.14,-0.64 0.06,-1.26 l 0.24,-0.75 c 0.2,-0.61 0.45,-1.03 0.75,-1.26 0.3,-0.23 0.78,-0.34 1.44,-0.34 h 3.83 c 0.63,0 1.04,0.11 1.21,0.33 0.17,0.22 0.17,0.6 -0.01,1.16 l -0.05,0.14 -1.49,0.33 z" id="path46"></path> <path class="st4" d="m 197.92,251.18 5.99,-6.75 h 1.51 l 1.7,6.75 h -1.76 l -0.34,-1.48 h -4.28 l -1.26,1.48 z m 3.89,-2.69 h 2.96 l -0.57,-2.75 z m 2.19,-4.77 2.01,-2.21 h 1.42 l -2.59,2.21 z" id="path48"></path> <path class="st4" d="m 207.98,251.18 2.17,-6.75 h 1.07 l 3.47,3.98 c 0.12,0.13 0.22,0.26 0.31,0.37 0.09,0.12 0.16,0.24 0.22,0.36 0.1,-0.38 0.17,-0.65 0.21,-0.8 0.04,-0.16 0.08,-0.28 0.1,-0.36 l 1.14,-3.54 h 1.41 l -2.17,6.75 h -1.07 l -3.62,-4.17 c -0.08,-0.11 -0.16,-0.2 -0.22,-0.29 -0.06,-0.09 -0.12,-0.17 -0.17,-0.26 -0.05,0.21 -0.09,0.41 -0.14,0.59 -0.05,0.19 -0.1,0.35 -0.14,0.48 l -1.17,3.65 h -1.4 z" id="path50"></path> <path class="st4" d="m 225.49,245.64 h -4.23 l -1.37,4.27 h 4.23 l 0.47,-1.45 1.47,0.33 -0.26,0.8 c -0.2,0.62 -0.45,1.04 -0.75,1.26 -0.3,0.22 -0.78,0.34 -1.43,0.34 h -4.03 c -0.66,0 -1.06,-0.11 -1.22,-0.34 -0.16,-0.22 -0.14,-0.64 0.06,-1.26 l 1.14,-3.56 c 0.2,-0.61 0.45,-1.03 0.75,-1.26 0.3,-0.23 0.78,-0.34 1.44,-0.34 h 4.03 c 0.65,0 1.06,0.11 1.22,0.34 0.16,0.23 0.14,0.65 -0.06,1.26 l -0.21,0.64 -1.65,0.25 z" id="path52"></path> <path class="st4" d="m 227.21,251.18 2.17,-6.75 h 1.57 l -0.84,2.62 h 4.9 l 0.84,-2.62 h 1.58 l -2.17,6.75 h -1.58 l 0.93,-2.91 h -4.9 l -0.93,2.91 z" id="path54"></path> <path class="st4" d="m 237.41,251.18 2.17,-6.75 h 6.91 l -0.37,1.15 h -5.34 l -0.48,1.51 h 3.12 l -0.37,1.15 h -3.12 l -0.54,1.67 h 5.4 l -0.41,1.27 z" id="path56"></path> <path class="st4" d="m 245.05,251.18 0.24,-0.73 6.26,-4.81 h -4.25 l 0.39,-1.21 h 6.78 l -0.22,0.67 -6.33,4.81 h 4.79 l -0.41,1.27 z" id="path58"></path> </g> <g id="g76"> <path class="st1" d="m 172.89,254.91 h -2.73 l -0.89,2.76 H 172 l 0.3,-0.94 0.95,0.21 -0.17,0.51 c -0.13,0.4 -0.29,0.67 -0.49,0.81 -0.2,0.14 -0.5,0.22 -0.92,0.22 h -2.6 c -0.42,0 -0.69,-0.07 -0.79,-0.22 -0.1,-0.14 -0.09,-0.42 0.04,-0.81 l 0.74,-2.29 c 0.13,-0.4 0.29,-0.67 0.48,-0.81 0.2,-0.15 0.5,-0.22 0.93,-0.22 h 2.6 c 0.42,0 0.68,0.07 0.78,0.22 0.1,0.15 0.09,0.42 -0.04,0.81 l -0.13,0.41 -1.07,0.16 z" id="path62"></path> <path class="st1" d="m 175.55,258.49 3.86,-4.35 h 0.98 l 1.1,4.35 h -1.14 l -0.22,-0.95 h -2.76 l -0.81,0.95 z m 2.51,-1.74 h 1.91 l -0.37,-1.77 z" id="path64"></path> <path class="st1" d="m 184.57,258.49 1.4,-4.35 h 1.01 l -1.14,3.53 h 3.27 l -0.26,0.82 z" id="path66"></path> <path class="st1" d="m 191.43,258.49 0.15,-0.47 4.04,-3.1 h -2.74 l 0.25,-0.78 h 4.37 l -0.14,0.43 -4.09,3.1 h 3.09 l -0.26,0.82 z" id="path68"></path> <path class="st1" d="m 198.64,258.49 3.86,-4.35 h 0.98 l 1.1,4.35 h -1.14 l -0.22,-0.95 h -2.76 l -0.81,0.95 z m 2.5,-1.74 h 1.91 l -0.37,-1.77 z" id="path70"></path> <path class="st1" d="m 207.66,258.49 1.4,-4.35 h 2.8 c 0.8,0 1.35,0.19 1.66,0.56 0.31,0.37 0.35,0.9 0.13,1.59 -0.13,0.41 -0.33,0.77 -0.6,1.1 -0.27,0.33 -0.59,0.58 -0.96,0.77 -0.23,0.12 -0.49,0.2 -0.79,0.26 -0.3,0.05 -0.67,0.08 -1.11,0.08 h -2.53 z m 1.28,-0.82 h 1.31 c 0.7,0 1.23,-0.11 1.59,-0.33 0.36,-0.22 0.62,-0.58 0.78,-1.08 0.14,-0.44 0.13,-0.78 -0.04,-1.01 -0.17,-0.23 -0.49,-0.34 -0.96,-0.34 h -1.8 z" id="path72"></path> <path class="st1" d="m 215.52,258.49 3.86,-4.35 h 0.98 l 1.1,4.35 h -1.14 l -0.22,-0.95 h -2.76 l -0.81,0.95 z m 2.5,-1.74 h 1.91 l -0.37,-1.77 z" id="path74"></path> </g> </g> <g id="g88"> <polygon class="st1" points="111.42,254.74 105.5,254.74 101.03,268.64 106.94,268.64 " id="polygon80"></polygon> <g id="g86"> <polygon class="st1" points="117.48,252.42 122.8,246.5 114.07,246.5 117.03,237.28 131.98,237.28 139.8,231.36 113.02,231.36 106.25,252.42 " id="polygon82"></polygon> <polygon class="st4" points="128.28,252.42 124.97,262.72 113.33,262.72 111.42,268.64 128.98,268.64 136.1,246.5 126.46,246.5 121.14,252.42 123.02,252.42 " id="polygon84"></polygon> </g> </g> </g> <g class="st3" id="g100" style="display:none"> <polygon class="st0" points="316.75,235.13 305.62,235.13 297.21,261.28 308.33,261.28 " id="polygon92"></polygon> <g id="g98"> <polygon class="st0" points="328.16,230.76 338.16,219.64 321.73,219.64 327.32,202.29 355.43,202.29 370.14,191.16 319.77,191.16 307.03,230.76 " id="polygon94"></polygon> <polygon class="st4" points="342.24,250.15 320.34,250.15 316.76,261.28 349.79,261.28 363.19,219.64 345.05,219.64 335.05,230.76 338.58,230.76 348.48,230.76 " id="polygon96"></polygon> </g> </g> <g id="g110" style="display:none"> <polygon class="st0" points="326.7,298.59 322.12,298.59 318.66,309.35 323.24,309.35 " id="polygon102"></polygon> <g id="g108"> <polygon class="st0" points="342.63,285.06 348.69,280.48 327.95,280.48 322.7,296.79 331.4,296.79 335.52,292.2 328.76,292.2 331.05,285.06 " id="polygon104"></polygon> <polygon class="st4" points="338.36,292.2 334.24,296.79 335.69,296.79 339.77,296.79 337.2,304.77 328.18,304.77 326.71,309.35 340.31,309.35 345.82,292.2 " id="polygon106"></polygon> </g> </g> <g id="g156" style="display:none"> <g id="g138"> <path class="st0" d="m 295.06,167.68 1.49,-4.63 h 4.68 l -0.26,0.81 h -3.6 l -0.39,1.22 h 1.95 l -0.27,0.85 h -1.95 l -0.56,1.76 h -1.09 z" id="path112"></path> <path class="st0" d="m 300.18,167.68 1.49,-4.63 h 4.74 l -0.25,0.79 h -3.66 l -0.33,1.03 h 2.14 l -0.25,0.79 h -2.14 l -0.37,1.15 h 3.7 l -0.28,0.87 z" id="path114"></path> <path class="st0" d="m 306.05,167.68 1.49,-4.63 h 1.08 l -1.21,3.76 h 3.47 l -0.28,0.87 z" id="path116"></path> <path class="st0" d="m 311.28,167.68 1.49,-4.63 h 1.08 l -1.49,4.63 z" id="path118"></path> <path class="st0" d="m 313.82,167.68 1.49,-4.63 h 3.96 c 0.37,0 0.61,0.07 0.73,0.21 0.12,0.14 0.13,0.37 0.03,0.69 l -0.33,1.03 c -0.1,0.31 -0.26,0.54 -0.47,0.68 -0.21,0.14 -0.5,0.21 -0.87,0.21 h -2.9 l -0.58,1.8 h -1.06 z m 4.71,-3.82 h -2.42 l -0.39,1.23 h 2.42 c 0.19,0 0.32,-0.03 0.41,-0.08 0.09,-0.05 0.15,-0.15 0.19,-0.29 l 0.16,-0.49 c 0.04,-0.13 0.04,-0.23 -0.01,-0.28 -0.05,-0.07 -0.17,-0.09 -0.36,-0.09 z" id="path120"></path> <path class="st0" d="m 319.59,167.68 1.49,-4.63 h 4.74 l -0.25,0.79 h -3.66 l -0.33,1.03 h 2.14 l -0.25,0.79 h -2.14 l -0.37,1.15 h 3.7 l -0.28,0.87 z" id="path122"></path> <path class="st4" d="m 333.28,163.87 h -3.03 l -0.32,0.99 h 2.89 c 0.45,0 0.73,0.08 0.84,0.23 0.11,0.15 0.1,0.44 -0.04,0.86 l -0.2,0.63 c -0.14,0.42 -0.31,0.71 -0.52,0.86 -0.21,0.15 -0.54,0.23 -0.99,0.23 h -2.86 c -0.45,0 -0.73,-0.08 -0.84,-0.23 -0.11,-0.15 -0.1,-0.44 0.04,-0.86 l 0.04,-0.13 1.01,-0.2 -0.18,0.55 h 3.27 l 0.34,-1.06 h -2.89 c -0.45,0 -0.73,-0.08 -0.84,-0.23 -0.11,-0.15 -0.09,-0.44 0.04,-0.86 l 0.16,-0.51 c 0.14,-0.42 0.31,-0.71 0.51,-0.86 0.21,-0.15 0.54,-0.23 0.99,-0.23 h 2.63 c 0.43,0 0.71,0.07 0.83,0.22 0.12,0.15 0.11,0.41 -0.01,0.79 l -0.03,0.1 -1.02,0.22 z" id="path124"></path> <path class="st4" d="m 333.51,167.68 4.11,-4.63 h 1.04 l 1.17,4.63 h -1.21 l -0.23,-1.01 h -2.93 l -0.86,1.01 z m 2.67,-1.84 h 2.03 l -0.39,-1.88 z m 1.5,-3.27 1.38,-1.52 h 0.97 l -1.78,1.52 z" id="path126"></path> <path class="st4" d="m 340.41,167.68 1.49,-4.63 h 0.74 l 2.38,2.73 c 0.08,0.09 0.15,0.18 0.21,0.26 0.06,0.08 0.11,0.16 0.15,0.25 0.07,-0.26 0.11,-0.44 0.14,-0.55 0.03,-0.11 0.05,-0.19 0.07,-0.25 l 0.78,-2.43 h 0.97 l -1.49,4.63 h -0.74 l -2.48,-2.86 c -0.06,-0.07 -0.11,-0.14 -0.15,-0.2 -0.04,-0.06 -0.08,-0.12 -0.11,-0.18 -0.03,0.14 -0.06,0.28 -0.1,0.4 -0.03,0.13 -0.07,0.24 -0.1,0.33 l -0.8,2.5 z" id="path128"></path> <path class="st4" d="m 352.42,163.88 h -2.9 l -0.94,2.93 h 2.9 l 0.32,-0.99 1.01,0.22 -0.18,0.55 c -0.14,0.42 -0.31,0.71 -0.52,0.86 -0.21,0.15 -0.54,0.23 -0.98,0.23 h -2.76 c -0.45,0 -0.73,-0.08 -0.84,-0.23 -0.11,-0.15 -0.09,-0.44 0.04,-0.86 l 0.78,-2.44 c 0.14,-0.42 0.31,-0.71 0.51,-0.86 0.21,-0.15 0.54,-0.23 0.99,-0.23 h 2.76 c 0.45,0 0.72,0.08 0.83,0.23 0.11,0.15 0.1,0.44 -0.04,0.86 l -0.14,0.44 -1.13,0.17 z" id="path130"></path> <path class="st4" d="m 353.6,167.68 1.49,-4.63 h 1.08 l -0.58,1.8 h 3.36 l 0.58,-1.8 h 1.09 l -1.49,4.63 h -1.09 l 0.64,-1.99 h -3.36 l -0.64,1.99 z" id="path132"></path> <path class="st4" d="m 360.59,167.68 1.49,-4.63 h 4.74 l -0.25,0.79 h -3.66 l -0.33,1.03 h 2.14 l -0.25,0.79 h -2.14 l -0.37,1.15 h 3.7 l -0.28,0.87 z" id="path134"></path> <path class="st4" d="m 365.83,167.68 0.16,-0.5 4.3,-3.3 h -2.91 l 0.27,-0.83 h 4.65 l -0.15,0.46 -4.34,3.3 h 3.28 l -0.28,0.87 z" id="path136"></path> </g> <g id="g154"> <path class="st0" d="m 316.35,170.24 h -1.87 l -0.61,1.89 h 1.87 l 0.21,-0.64 0.65,0.14 -0.11,0.35 c -0.09,0.27 -0.2,0.46 -0.33,0.56 -0.13,0.1 -0.35,0.15 -0.63,0.15 h -1.78 c -0.29,0 -0.47,-0.05 -0.54,-0.15 -0.07,-0.1 -0.06,-0.28 0.03,-0.56 l 0.51,-1.57 c 0.09,-0.27 0.2,-0.46 0.33,-0.56 0.13,-0.1 0.35,-0.15 0.64,-0.15 h 1.78 c 0.29,0 0.47,0.05 0.54,0.15 0.07,0.1 0.06,0.29 -0.02,0.56 l -0.09,0.28 -0.73,0.11 z" id="path140"></path> <path class="st0" d="m 318.17,172.69 2.65,-2.99 h 0.67 l 0.75,2.99 h -0.78 l -0.15,-0.65 h -1.89 l -0.56,0.65 z m 1.72,-1.19 h 1.31 l -0.25,-1.21 z" id="path142"></path> <path class="st0" d="m 324.36,172.69 0.96,-2.99 h 0.7 l -0.78,2.42 h 2.24 l -0.18,0.56 h -2.94 z" id="path144"></path> <path class="st0" d="m 329.06,172.69 0.1,-0.32 2.77,-2.13 h -1.88 l 0.17,-0.53 h 3 l -0.1,0.3 -2.8,2.13 h 2.12 l -0.18,0.56 h -3.2 z" id="path146"></path> <path class="st0" d="m 334,172.69 2.65,-2.99 h 0.67 l 0.75,2.99 h -0.78 l -0.15,-0.65 h -1.89 l -0.56,0.65 z m 1.72,-1.19 h 1.31 l -0.25,-1.21 z" id="path148"></path> <path class="st0" d="m 340.19,172.69 0.96,-2.99 h 1.92 c 0.55,0 0.93,0.13 1.14,0.38 0.21,0.26 0.24,0.62 0.09,1.09 -0.09,0.28 -0.23,0.53 -0.41,0.75 -0.19,0.22 -0.4,0.4 -0.66,0.53 -0.16,0.08 -0.34,0.14 -0.54,0.18 -0.2,0.04 -0.46,0.06 -0.76,0.06 z m 0.88,-0.56 h 0.9 c 0.48,0 0.84,-0.07 1.09,-0.22 0.25,-0.15 0.43,-0.39 0.54,-0.74 0.1,-0.31 0.09,-0.54 -0.03,-0.69 -0.12,-0.16 -0.33,-0.24 -0.66,-0.24 h -1.23 z" id="path150"></path> <path class="st0" d="m 345.58,172.69 2.65,-2.99 h 0.67 l 0.75,2.99 h -0.78 l -0.15,-0.65 h -1.89 l -0.56,0.65 z m 1.72,-1.19 h 1.31 l -0.25,-1.21 z" id="path152"></path> </g> </g> </g> </svg>